<svg xmlns="http://www.w3.org/2000/svg" width="13" height="12" fill="none"><mask id="A" mask-type="alpha" maskUnits="userSpaceOnUse" x="2" y="2" width="9" height="8"><path fill-rule="evenodd" d="M7.338 6l3.093-3.093c.213-.213.213-.533 0-.747s-.533-.213-.747 0L6.592 5.253 3.498 2.16c-.213-.213-.533-.213-.747 0s-.213.533 0 .747L5.845 6 2.752 9.093c-.213.213-.213.533 0 .747.107.107.24.16.373.16s.267-.053.373-.16l3.093-3.093L9.685 9.84c.107.107.24.16.373.16s.267-.053.373-.16c.213-.213.213-.533 0-.747L7.338 6z" fill="#fff"/></mask><g mask="url(#A)"><path fill="#1a1818" d="M.592 0h12v12h-12z"/></g></svg>